<svg width="149" height="50" viewBox="0 0 149 50" fill="none" xmlns="http://www.w3.org/2000/svg">
<path d="M136.721 0.000162499H11.8363C11.3811 0.000162499 10.9313 0.0001625 10.4773 0.00266249C10.0972 0.00516248 9.72023 0.012425 9.33652 0.0185374C8.50294 0.0284147 7.67132 0.102257 6.84889 0.239424C6.02762 0.379577 5.23207 0.643805 4.48915 1.02317C3.74715 1.40575 3.06915 1.90287 2.47977 2.49649C1.88729 3.08845 1.39342 3.77267 1.01714 4.52285C0.639815 5.27153 0.378179 6.07382 0.241265 6.90199C0.103049 7.72912 0.0286742 8.56579 0.0188071 9.40448C0.00728698 9.78773 0.00607042 10.1723 0 10.5556V39.4483C0.00607042 39.8364 0.00728698 40.2124 0.0188071 40.6007C0.0286772 41.4393 0.103052 42.2759 0.241265 43.103C0.377801 43.9317 0.639452 44.7344 1.01714 45.4834C1.39325 46.2311 1.88719 46.9126 2.47977 47.5013C3.06692 48.0975 3.74535 48.595 4.48915 48.9746C5.23206 49.355 6.02753 49.6208 6.84889 49.7631C7.67146 49.8992 8.503 49.9731 9.33652 49.9841C9.72023 49.9926 10.0972 49.9975 10.4773 49.9975C10.9313 50 11.3811 50 11.8363 50H136.721C137.167 50 137.62 50 138.066 49.9975C138.445 49.9975 138.832 49.9926 139.211 49.9841C140.043 49.9737 140.873 49.8998 141.694 49.7631C142.518 49.6198 143.316 49.3541 144.062 48.9746C144.805 48.5948 145.483 48.0973 146.07 47.5013C146.661 46.9103 147.156 46.2293 147.537 45.4834C147.912 44.7339 148.171 43.9312 148.305 43.103C148.444 42.2758 148.521 41.4394 148.536 40.6007C148.541 40.2124 148.541 39.8364 148.541 39.4483C148.55 38.9942 148.55 38.5425 148.55 38.081V11.9203C148.55 11.4625 148.55 11.0084 148.541 10.5556C148.541 10.1723 148.541 9.78773 148.536 9.40443C148.521 8.56566 148.444 7.72918 148.305 6.90194C148.17 6.07425 147.911 5.27202 147.537 4.5228C146.77 3.01915 145.555 1.79519 144.062 1.02306C143.316 0.64462 142.517 0.380462 141.694 0.239312C140.873 0.101541 140.043 0.0276721 139.211 0.0183624C138.832 0.0122625 138.445 0.00493748 138.066 0.00249999C137.62 0 137.167 0 136.721 0V0.000162499Z" fill="#A6A6A6"/>
<path d="M10.4836 48.9062C10.1054 48.9062 9.73628 48.9013 9.36101 48.8928C8.58363 48.8826 7.80806 48.8145 7.04068 48.689C6.32512 48.5649 5.63195 48.3341 4.98401 48.0041C4.34201 47.6769 3.75646 47.2478 3.24978 46.7333C2.73577 46.2249 2.30783 45.6353 1.98293 44.9877C1.65444 44.336 1.42711 43.6374 1.30885 42.9162C1.18114 42.1414 1.11205 41.3579 1.10216 40.5725C1.09429 40.3089 1.08398 39.4311 1.08398 39.4311V10.5555C1.08398 10.5555 1.09496 9.69126 1.10222 9.43734C1.11169 8.6532 1.18038 7.87092 1.30771 7.09727C1.42619 6.37417 1.65369 5.67354 1.98236 5.01965C2.30607 4.37254 2.73163 3.78244 3.24254 3.27222C3.75289 2.75714 4.34031 2.32587 4.9834 1.99413C5.62985 1.66524 6.32172 1.43604 7.03582 1.31421C7.80573 1.18742 8.58399 1.11887 9.36407 1.10913L10.4842 1.09387H138.06L139.194 1.10975C139.967 1.119 140.738 1.18693 141.501 1.31298C142.222 1.43634 142.921 1.66714 143.575 1.99779C144.864 2.66635 145.912 3.72407 146.573 5.0227C146.897 5.67208 147.121 6.36699 147.238 7.08384C147.366 7.86384 147.439 8.65227 147.453 9.44285C147.457 9.79684 147.457 10.1771 147.457 10.5555C147.467 11.0243 147.467 11.4704 147.467 11.9202V38.081C147.467 38.5351 147.467 38.9783 147.457 39.425C147.457 39.8315 147.457 40.2039 147.452 40.5871C147.438 41.3636 147.367 42.1379 147.24 42.904C147.124 43.6303 146.898 44.3344 146.57 44.9915C146.242 45.632 145.817 46.2166 145.309 46.7236C144.802 47.2408 144.215 47.6724 143.572 48.0017C142.92 48.3342 142.222 48.5659 141.501 48.689C140.734 48.8152 139.958 48.8833 139.181 48.8928C138.817 48.9013 138.436 48.9062 138.067 48.9062L136.721 48.9087L10.4836 48.9062Z" fill="black"/>
<path d="M30.7477 25.3759C30.7611 24.3326 31.0363 23.3096 31.5478 22.4021C32.0592 21.4947 32.7904 20.7323 33.6731 20.1858C33.1123 19.3794 32.3725 18.7157 31.5125 18.2475C30.6524 17.7793 29.6958 17.5195 28.7185 17.4887C26.6339 17.2684 24.613 18.7448 23.5507 18.7448C22.4679 18.7448 20.8324 17.5106 19.0712 17.5471C17.932 17.5841 16.8217 17.9177 15.8486 18.5153C14.8755 19.1129 14.0727 19.9541 13.5185 20.9569C11.1176 25.1424 12.9085 31.2937 15.2083 34.677C16.3589 36.3336 17.7037 38.1842 19.4633 38.1186C21.1852 38.0467 21.8283 37.013 23.9068 37.013C25.9659 37.013 26.5693 38.1186 28.3646 38.0769C30.2123 38.0467 31.3764 36.4128 32.4867 34.7404C33.3134 33.56 33.9496 32.2553 34.3716 30.8748C33.2982 30.4177 32.3821 29.6524 31.7377 28.6746C31.0933 27.6967 30.749 26.5495 30.7477 25.3759V25.3759Z" fill="white"/>
<path d="M27.3564 15.2636C28.3639 14.0459 28.8602 12.4807 28.74 10.9004C27.2009 11.0632 25.7791 11.8039 24.7581 12.9749C24.2589 13.547 23.8766 14.2125 23.6329 14.9335C23.3893 15.6544 23.2892 16.4167 23.3383 17.1766C24.1082 17.1846 24.8698 17.0166 25.5658 16.6852C26.2618 16.3539 26.874 15.8678 27.3564 15.2636Z" fill="white"/>
<path d="M52.5133 33.9246H46.6373L45.2262 38.1201H42.7373L48.303 22.5977H50.8888L56.4545 38.1201H53.9232L52.5133 33.9246ZM47.2458 31.9885H51.9035L49.6075 25.1795H49.5432L47.2458 31.9885Z" fill="white"/>
<path d="M68.4742 32.4622C68.4742 35.979 66.6049 38.2385 63.7839 38.2385C63.0692 38.2761 62.3586 38.1104 61.7331 37.7602C61.1077 37.4101 60.5929 36.8896 60.2476 36.2585H60.1942V41.864H57.8872V26.803H60.1203V28.6853H60.1627C60.5239 28.0572 61.0474 27.5395 61.6776 27.1872C62.3078 26.8349 63.021 26.6612 63.7414 26.6846C66.5939 26.6846 68.4742 28.9551 68.4742 32.4622ZM66.103 32.4622C66.103 30.1709 64.927 28.6646 63.1328 28.6646C61.3702 28.6646 60.1845 30.2026 60.1845 32.4622C60.1845 34.7424 61.3702 36.2695 63.1328 36.2695C64.9271 36.2695 66.103 34.7742 66.103 32.4622Z" fill="white"/>
<path d="M80.8449 32.4622C80.8449 35.979 78.9755 38.2385 76.1545 38.2385C75.4399 38.2761 74.7292 38.1104 74.1038 37.7602C73.4784 37.41 72.9635 36.8896 72.6182 36.2585H72.5648V41.864H70.2578V26.803H72.4909V28.6853H72.5333C72.8945 28.0572 73.418 27.5395 74.0482 27.1872C74.6784 26.8349 75.3916 26.6612 76.112 26.6846C78.9646 26.6846 80.8449 28.9551 80.8449 32.4622ZM78.4736 32.4622C78.4736 30.1709 77.2977 28.6646 75.5035 28.6646C73.7408 28.6646 72.5551 30.2026 72.5551 32.4622C72.5551 34.7424 73.7408 36.2695 75.5035 36.2695C77.2977 36.2695 78.4736 34.7742 78.4736 32.4622H78.4736Z" fill="white"/>
<path d="M89.0203 33.7952C89.1912 35.3345 90.6763 36.3452 92.7057 36.3452C94.6502 36.3452 96.0492 35.3344 96.0492 33.9465C96.0492 32.7417 95.2054 32.0203 93.2076 31.5259L91.2097 31.0412C88.379 30.3528 87.0648 29.0198 87.0648 26.8567C87.0648 24.1785 89.3828 22.3389 92.6742 22.3389C95.9316 22.3389 98.1647 24.1785 98.2398 26.8567H95.911C95.7716 25.3076 94.4999 24.3726 92.6414 24.3726C90.7829 24.3726 89.5112 25.3186 89.5112 26.6956C89.5112 27.793 90.3235 28.4387 92.3104 28.933L94.0089 29.353C97.1718 30.1061 98.4859 31.3855 98.4859 33.6559C98.4859 36.56 96.1886 38.3788 92.5347 38.3788C89.116 38.3788 86.8078 36.6027 86.6587 33.7951L89.0203 33.7952Z" fill="white"/>
<path d="M103.465 24.1248V26.803H105.602V28.6426H103.465V34.8816C103.465 35.8508 103.893 36.3025 104.832 36.3025C105.086 36.298 105.339 36.2801 105.591 36.2487V38.0773C105.169 38.1568 104.739 38.1928 104.31 38.1847C102.034 38.1847 101.147 37.3241 101.147 35.1293V28.6426H99.5127V26.803H101.147V24.1248H103.465Z" fill="white"/>
<path d="M106.84 32.4621C106.84 28.9014 108.923 26.6638 112.17 26.6638C115.429 26.6638 117.502 28.9013 117.502 32.4621C117.502 36.0327 115.44 38.2605 112.17 38.2605C108.902 38.2605 106.84 36.0327 106.84 32.4621ZM115.151 32.4621C115.151 30.0195 114.04 28.5779 112.17 28.5779C110.301 28.5779 109.19 30.0305 109.19 32.4621C109.19 34.9145 110.301 36.3452 112.17 36.3452C114.04 36.3452 115.151 34.9145 115.151 32.4621H115.151Z" fill="white"/>
<path d="M119.404 26.803H121.605V28.7293H121.658C121.807 28.1276 122.157 27.596 122.649 27.2236C123.142 26.8513 123.746 26.6609 124.361 26.6846C124.627 26.6836 124.892 26.7127 125.152 26.7713V28.9441C124.816 28.8408 124.466 28.7934 124.115 28.8037C123.78 28.79 123.446 28.8495 123.136 28.9781C122.826 29.1068 122.547 29.3014 122.318 29.5488C122.09 29.7961 121.918 30.0903 121.813 30.4112C121.708 30.732 121.673 31.0719 121.711 31.4075V38.1201H119.404L119.404 26.803Z" fill="white"/>
<path d="M135.788 34.7961C135.478 36.8505 133.491 38.2605 130.949 38.2605C127.679 38.2605 125.65 36.0546 125.65 32.5158C125.65 28.9661 127.69 26.6638 130.852 26.6638C133.961 26.6638 135.917 28.8147 135.917 32.2461V33.042H127.979V33.1823C127.942 33.5988 127.994 34.0184 128.131 34.4132C128.267 34.808 128.486 35.169 128.772 35.4722C129.058 35.7754 129.405 36.0138 129.789 36.1717C130.174 36.3296 130.587 36.4033 131.002 36.3879C131.547 36.4393 132.094 36.3122 132.562 36.0254C133.03 35.7386 133.393 35.3075 133.598 34.7961L135.788 34.7961ZM127.99 31.4184H133.609C133.629 31.0439 133.573 30.6692 133.443 30.3177C133.313 29.9662 133.112 29.6455 132.854 29.3758C132.595 29.1061 132.283 28.8932 131.939 28.7504C131.594 28.6076 131.224 28.5381 130.852 28.5461C130.476 28.5439 130.104 28.6166 129.756 28.76C129.408 28.9034 129.093 29.1147 128.826 29.3818C128.56 29.6488 128.349 29.9663 128.206 30.3159C128.062 30.6654 127.989 31.0402 127.99 31.4184V31.4184Z" fill="white"/>
<path d="M46.9573 10.9137C47.4409 10.8788 47.9263 10.9524 48.3783 11.1292C48.8303 11.3059 49.2377 11.5815 49.5711 11.9361C49.9045 12.2906 50.1557 12.7152 50.3064 13.1793C50.4571 13.6434 50.5036 14.1354 50.4426 14.6198C50.4426 17.0026 49.1637 18.3723 46.9573 18.3723H44.2817V10.9137H46.9573ZM45.4322 17.3175H46.8288C47.1744 17.3383 47.5202 17.2812 47.8412 17.1504C48.1621 17.0197 48.4501 16.8185 48.6841 16.5615C48.9181 16.3046 49.0922 15.9983 49.1939 15.665C49.2955 15.3318 49.322 14.9799 49.2715 14.635C49.3184 14.2914 49.2891 13.9417 49.1859 13.6109C49.0828 13.2801 48.9082 12.9763 48.6747 12.7214C48.4413 12.4665 48.1547 12.2667 47.8356 12.1364C47.5164 12.0061 47.1726 11.9485 46.8288 11.9677H45.4322V17.3175Z" fill="white"/>
<path d="M51.742 15.5555C51.7068 15.1856 51.7488 14.8124 51.8653 14.4598C51.9818 14.1072 52.1702 13.783 52.4184 13.508C52.6666 13.2331 52.9692 13.0134 53.3067 12.863C53.6441 12.7127 54.0091 12.635 54.3781 12.635C54.7471 12.635 55.1121 12.7127 55.4496 12.863C55.787 13.0134 56.0896 13.2331 56.3378 13.508C56.586 13.783 56.7744 14.1072 56.8909 14.4598C57.0074 14.8124 57.0494 15.1856 57.0142 15.5555C57.0501 15.9257 57.0085 16.2995 56.8924 16.6526C56.7762 17.0058 56.5879 17.3306 56.3396 17.6061C56.0913 17.8816 55.7886 18.1018 55.4508 18.2524C55.113 18.4031 54.7476 18.4809 54.3781 18.4809C54.0086 18.4809 53.6433 18.4031 53.3054 18.2524C52.9676 18.1018 52.6649 17.8816 52.4166 17.6061C52.1683 17.3306 51.98 17.0058 51.8639 16.6526C51.7477 16.2995 51.7062 15.9257 51.742 15.5555V15.5555ZM55.8795 15.5555C55.8795 14.3354 55.3352 13.6219 54.3799 13.6219C53.421 13.6219 52.8816 14.3354 52.8816 15.5555C52.8816 16.7853 53.421 17.4933 54.3799 17.4933C55.3352 17.4933 55.8795 16.7804 55.8795 15.5555H55.8795Z" fill="white"/>
<path d="M64.0229 18.3722H62.8784L61.7231 14.2267H61.6359L60.4854 18.3722H59.3519L57.811 12.7435H58.93L59.9314 17.0385H60.0138L61.1631 12.7435H62.2214L63.3706 17.0385H63.4579L64.4544 12.7435H65.5576L64.0229 18.3722Z" fill="white"/>
<path d="M66.8535 12.7436H67.9155V13.6377H67.9979C68.1378 13.3166 68.3736 13.0474 68.6727 12.8676C68.9717 12.6879 69.3189 12.6065 69.6661 12.6349C69.938 12.6143 70.2111 12.6556 70.4651 12.7558C70.7191 12.8559 70.9475 13.0123 71.1333 13.2133C71.3191 13.4144 71.4576 13.6549 71.5386 13.9172C71.6195 14.1795 71.6408 14.4567 71.6009 14.7284V18.3722H70.4977V15.0074C70.4977 14.1028 70.1073 13.653 69.2915 13.653C69.1068 13.6443 68.9224 13.676 68.7511 13.7458C68.5797 13.8156 68.4253 13.9218 68.2985 14.0573C68.1718 14.1928 68.0756 14.3543 68.0166 14.5307C67.9576 14.7071 67.9371 14.8943 67.9567 15.0794V18.3722H66.8535L66.8535 12.7436Z" fill="white"/>
<path d="M73.3589 10.5463H74.4621V18.3722H73.3589V10.5463Z" fill="white"/>
<path d="M75.9953 15.5555C75.9602 15.1855 76.0023 14.8123 76.1188 14.4597C76.2353 14.1071 76.4237 13.7829 76.672 13.5079C76.9202 13.233 77.2228 13.0132 77.5603 12.8629C77.8978 12.7126 78.2628 12.6349 78.6318 12.6349C79.0009 12.6349 79.3658 12.7126 79.7033 12.8629C80.0408 13.0132 80.3434 13.233 80.5916 13.5079C80.8399 13.7829 81.0283 14.1071 81.1448 14.4597C81.2613 14.8123 81.3034 15.1855 81.2682 15.5555C81.304 15.9257 81.2624 16.2995 81.1462 16.6526C81.03 17.0058 80.8417 17.3305 80.5934 17.6061C80.3451 17.8816 80.0423 18.1017 79.7045 18.2524C79.3667 18.403 79.0013 18.4809 78.6318 18.4809C78.2623 18.4809 77.8969 18.403 77.5591 18.2524C77.2213 18.1017 76.9185 17.8816 76.6702 17.6061C76.4219 17.3305 76.2336 17.0058 76.1174 16.6526C76.0011 16.2995 75.9596 15.9257 75.9953 15.5555V15.5555ZM80.1329 15.5555C80.1329 14.3354 79.5886 13.6219 78.6333 13.6219C77.6744 13.6219 77.135 14.3354 77.135 15.5555C77.135 16.7853 77.6744 17.4933 78.6333 17.4933C79.5886 17.4933 80.1329 16.7804 80.1329 15.5555H80.1329Z" fill="white"/>
<path d="M82.4297 16.7804C82.4297 15.7672 83.1789 15.1831 84.5088 15.1001L86.0229 15.0122V14.5264C86.0229 13.9319 85.6326 13.5962 84.8785 13.5962C84.2627 13.5962 83.836 13.8238 83.7135 14.2218H82.6455C82.7582 13.255 83.6614 12.6349 84.9295 12.6349C86.3309 12.6349 87.1213 13.3374 87.1213 14.5264V18.3722H86.0593V17.5812H85.972C85.7949 17.8649 85.5461 18.0962 85.2511 18.2515C84.9561 18.4067 84.6255 18.4804 84.293 18.4649C84.0583 18.4895 83.8212 18.4643 83.5968 18.3909C83.3724 18.3175 83.1657 18.1976 82.9902 18.0389C82.8146 17.8802 82.674 17.6862 82.5775 17.4694C82.481 17.2527 82.4306 17.0179 82.4297 16.7804V16.7804ZM86.0229 16.2994V15.8288L84.6579 15.9167C83.8881 15.9686 83.5389 16.2323 83.5389 16.7285C83.5389 17.2351 83.9754 17.5299 84.5755 17.5299C84.7513 17.5478 84.929 17.5299 85.0978 17.4773C85.2666 17.4247 85.4232 17.3384 85.5583 17.2236C85.6933 17.1088 85.8041 16.9678 85.8839 16.8091C85.9637 16.6503 86.011 16.477 86.0229 16.2994V16.2994Z" fill="white"/>
<path d="M88.5713 15.5554C88.5713 13.7769 89.4793 12.6502 90.8916 12.6502C91.241 12.6339 91.5877 12.7182 91.8912 12.8931C92.1948 13.0679 92.4426 13.3262 92.6058 13.6377H92.6883V10.5463H93.7914V18.3722H92.7343V17.4829H92.647C92.4713 17.7922 92.2148 18.0473 91.9053 18.2204C91.5959 18.3935 91.2454 18.4781 90.8916 18.4649C89.4696 18.465 88.5713 17.3383 88.5713 15.5554ZM89.7109 15.5554C89.7109 16.7493 90.2698 17.4677 91.2044 17.4677C92.1343 17.4677 92.7089 16.7389 92.7089 15.5603C92.7089 14.3872 92.1282 13.6481 91.2044 13.6481C90.2758 13.6481 89.7108 14.3713 89.7108 15.5554H89.7109Z" fill="white"/>
<path d="M98.3557 15.5555C98.3206 15.1856 98.3626 14.8124 98.4791 14.4598C98.5956 14.1072 98.784 13.783 99.0322 13.508C99.2804 13.2331 99.5829 13.0134 99.9204 12.863C100.258 12.7127 100.623 12.635 100.992 12.635C101.361 12.635 101.726 12.7127 102.063 12.863C102.401 13.0134 102.703 13.2331 102.952 13.508C103.2 13.783 103.388 14.1072 103.505 14.4598C103.621 14.8124 103.663 15.1856 103.628 15.5555C103.664 15.9257 103.622 16.2995 103.506 16.6526C103.39 17.0058 103.202 17.3306 102.953 17.6061C102.705 17.8816 102.402 18.1018 102.065 18.2524C101.727 18.4031 101.361 18.4809 100.992 18.4809C100.622 18.4809 100.257 18.4031 99.9192 18.2524C99.5814 18.1018 99.2786 17.8816 99.0304 17.6061C98.7821 17.3306 98.5938 17.0058 98.4776 16.6526C98.3614 16.2995 98.3199 15.9257 98.3557 15.5555V15.5555ZM102.493 15.5555C102.493 14.3354 101.949 13.6219 100.994 13.6219C100.035 13.6219 99.4953 14.3354 99.4953 15.5555C99.4953 16.7853 100.035 17.4933 100.994 17.4933C101.949 17.4933 102.493 16.7804 102.493 15.5555Z" fill="white"/>
<path d="M105.108 12.7436H106.17V13.6377H106.253C106.393 13.3166 106.629 13.0474 106.928 12.8676C107.227 12.6879 107.574 12.6065 107.921 12.6349C108.193 12.6143 108.466 12.6556 108.72 12.7558C108.974 12.8559 109.202 13.0123 109.388 13.2133C109.574 13.4144 109.713 13.6549 109.793 13.9172C109.874 14.1795 109.896 14.4567 109.856 14.7284V18.3722H108.753V15.0074C108.753 14.1028 108.362 13.653 107.546 13.653C107.362 13.6443 107.177 13.676 107.006 13.7458C106.835 13.8156 106.68 13.9218 106.553 14.0573C106.427 14.1928 106.33 14.3543 106.271 14.5307C106.212 14.7071 106.192 14.8943 106.212 15.0794V18.3722H105.108V12.7436Z" fill="white"/>
<path d="M116.089 11.3422V12.7692H117.3V13.7048H116.089V16.5991C116.089 17.1887 116.33 17.4469 116.879 17.4469C117.02 17.4464 117.16 17.4379 117.3 17.4212V18.3465C117.102 18.3822 116.901 18.4012 116.7 18.4033C115.473 18.4033 114.985 17.9687 114.985 16.8835V13.7048H114.097V12.7691H114.985V11.3422H116.089Z" fill="white"/>
<path d="M118.807 10.5463H119.901V13.6481H119.988C120.135 13.3239 120.377 13.0532 120.682 12.8727C120.987 12.6923 121.34 12.611 121.692 12.6398C121.963 12.6249 122.233 12.6704 122.485 12.773C122.736 12.8755 122.961 13.0326 123.145 13.233C123.329 13.4335 123.467 13.6723 123.548 13.9325C123.63 14.1926 123.654 14.4677 123.617 14.7381V18.3722H122.513V15.0122C122.513 14.1131 122.097 13.6578 121.318 13.6578C121.128 13.6422 120.938 13.6684 120.759 13.7347C120.581 13.801 120.419 13.9058 120.285 14.0417C120.15 14.1777 120.048 14.3414 119.983 14.5216C119.918 14.7018 119.894 14.894 119.91 15.0848V18.3722H118.807L118.807 10.5463Z" fill="white"/>
<path d="M130.05 16.8524C129.9 17.3668 129.576 17.8118 129.133 18.1095C128.69 18.4071 128.157 18.5386 127.628 18.4808C127.26 18.4906 126.894 18.4195 126.555 18.2726C126.217 18.1257 125.915 17.9064 125.669 17.63C125.423 17.3536 125.24 17.0267 125.133 16.6719C125.025 16.3171 124.995 15.943 125.046 15.5755C124.997 15.2069 125.027 14.832 125.134 14.4762C125.242 14.1203 125.424 13.7919 125.668 13.513C125.913 13.2342 126.214 13.0115 126.551 12.86C126.888 12.7085 127.254 12.6317 127.623 12.6349C129.179 12.6349 130.117 13.7049 130.117 15.4724V15.86H126.17V15.9222C126.152 16.1288 126.178 16.3367 126.245 16.5326C126.312 16.7286 126.42 16.9082 126.56 17.06C126.7 17.2118 126.87 17.3325 127.059 17.4142C127.248 17.496 127.452 17.537 127.658 17.5347C127.922 17.5666 128.19 17.5188 128.426 17.3973C128.663 17.2757 128.859 17.0861 128.988 16.8523L130.05 16.8524ZM126.17 15.0384H128.993C129.007 14.8495 128.981 14.6598 128.918 14.4814C128.855 14.303 128.755 14.1399 128.626 14.0025C128.496 13.8652 128.339 13.7567 128.166 13.684C127.992 13.6113 127.805 13.576 127.617 13.5803C127.426 13.5779 127.237 13.614 127.06 13.6864C126.883 13.7588 126.723 13.8661 126.588 14.002C126.453 14.1379 126.347 14.2996 126.275 14.4776C126.203 14.6556 126.167 14.8463 126.17 15.0384H126.17Z" fill="white"/>
</svg>
