<svg width="168" height="50" viewBox="0 0 168 50" fill="none" xmlns="http://www.w3.org/2000/svg">
<path d="M161.142 49.8792H6.28089C2.87393 49.8792 0.0864258 47.0802 0.0864258 43.6594V6.34065C0.0864258 2.91977 2.87393 0.120868 6.28089 0.120868H161.142C164.549 0.120868 167.337 2.91977 167.337 6.34065V43.6594C167.337 47.0802 164.549 49.8792 161.142 49.8792Z" fill="black"/>
<path d="M161.142 0.120868H6.28089C2.87393 0.120868 0.0864258 2.91977 0.0864258 6.34065V43.6594C0.0864258 47.0802 2.87393 49.8792 6.28089 49.8792H161.142C164.549 49.8792 167.337 47.0802 167.337 43.6594V6.34065C167.337 2.91977 164.549 0.120868 161.142 0.120868ZM161.142 1.11603C164.012 1.11603 166.346 3.46015 166.346 6.34065V43.6594C166.346 46.5404 164.012 48.8845 161.142 48.8845H6.28089C3.41211 48.8845 1.07754 46.5404 1.07754 43.6594V6.34065C1.07754 3.46015 3.41211 1.11603 6.28089 1.11603H161.142Z" fill="#A6A6A6"/>
<path d="M58.8325 12.8632C58.8325 13.9054 58.5251 14.7354 57.9095 15.3545C57.2103 16.0906 56.299 16.459 55.1786 16.459C54.1058 16.459 53.1936 16.0858 52.4434 15.3384C51.6919 14.5916 51.3169 13.6654 51.3169 12.5604C51.3169 11.4549 51.6919 10.5293 52.4434 9.78192C53.1936 9.03505 54.1058 8.66137 55.1786 8.66137C55.711 8.66137 56.2207 8.76586 56.7046 8.97435C57.1885 9.18333 57.5766 9.46073 57.867 9.80817L57.2136 10.4646C56.7216 9.87423 56.044 9.57928 55.1786 9.57928C54.3962 9.57928 53.7196 9.85532 53.1486 10.4078C52.5775 10.9608 52.292 11.678 52.292 12.5604C52.292 13.4429 52.5775 14.16 53.1486 14.7131C53.7196 15.2655 54.3962 15.5416 55.1786 15.5416C56.0087 15.5416 56.7007 15.264 57.2548 14.7082C57.6144 14.3461 57.8224 13.8428 57.8781 13.1965H55.1786V12.2999H58.7807C58.8155 12.4949 58.8325 12.682 58.8325 12.8632" fill="white"/>
<path d="M58.8329 12.8632H58.709C58.708 13.8816 58.4118 14.6727 57.8223 15.2665L57.8209 15.2675L57.8204 15.2685C57.1434 15.9793 56.2732 16.3331 55.179 16.3346C54.1347 16.3331 53.2607 15.9755 52.5309 15.2505C51.8026 14.524 51.4425 13.6372 51.4411 12.5604C51.4425 11.4831 51.8026 10.5968 52.5309 9.87085C53.2607 9.14538 54.1347 8.78724 55.179 8.78575C55.6954 8.78575 56.1871 8.88688 56.656 9.08853C57.1254 9.29166 57.4962 9.55787 57.7725 9.88839L57.8674 9.80816L57.7798 9.72021L57.1264 10.3771L57.214 10.4646L57.3094 10.385C56.7944 9.76536 56.0715 9.45301 55.179 9.45487C54.3675 9.45388 53.6537 9.74496 53.0632 10.3184C52.4671 10.8938 52.1675 11.6512 52.1685 12.5604C52.1675 13.4696 52.4671 14.2271 53.0632 14.8024C53.6537 15.3759 54.3675 15.6669 55.179 15.666C56.0366 15.6674 56.7674 15.3754 57.3427 14.7962C57.727 14.4093 57.9448 13.8734 58.0019 13.2071L58.0135 13.0721H55.3029V12.4243H58.7811V12.2999L58.659 12.3218C58.693 12.5104 58.709 12.6897 58.709 12.8632H58.8329H58.9568C58.9568 12.6741 58.9393 12.4798 58.903 12.2777L58.8846 12.1755H55.0551V13.1964V13.3208H57.8784V13.1964L57.755 13.1858C57.7004 13.8117 57.5019 14.283 57.1675 14.6203C56.6352 15.1528 55.9819 15.4157 55.179 15.4172C54.4255 15.4162 53.7862 15.1557 53.2351 14.6236C52.6892 14.0935 52.4176 13.4166 52.4163 12.5604C52.4176 11.7042 52.6892 11.0274 53.2351 10.4972C53.7862 9.96514 54.4255 9.70466 55.179 9.70366C56.0167 9.70565 56.6493 9.98355 57.1192 10.5448L57.2063 10.6488L57.955 9.8961L58.0353 9.81549L57.9622 9.72842C57.6578 9.36406 57.2523 9.07484 56.7538 8.86014C56.2544 8.64481 55.7273 8.53696 55.179 8.53696C54.0776 8.53596 53.1271 8.9247 52.3562 9.69396C51.5824 10.4617 51.1924 11.4268 51.1934 12.5604C51.1924 13.6935 51.5824 14.6591 52.3567 15.4274C53.1271 16.1961 54.0776 16.5844 55.179 16.5834C56.326 16.5844 57.2774 16.2019 57.9995 15.4404L57.9099 15.3545L57.9975 15.4424C58.6392 14.7985 58.9576 13.9288 58.9568 12.8632H58.8329Z" fill="white"/>
<path d="M64.5431 9.74541H61.1579V12.1119H64.2107V13.0088H61.1579V15.3753H64.5431V16.2922H60.2036V8.82849H64.5431V9.74541Z" fill="white"/>
<path d="M64.543 9.7454V9.62101H61.0339V12.2363H64.0867V12.884L61.0339 12.8844V15.4997H64.4191V16.1678H60.3274V8.95288H64.4191V9.7454H64.543V9.62101V9.7454H64.6669V8.82848V8.70409H60.0796V16.4166H64.6669V15.3753V15.2509H61.2817V13.1332H64.3345V12.1119V11.9875H61.2817V9.8698H64.6669V9.7454H64.543" fill="white"/>
<path d="M68.571 16.2922H67.6152V9.74541H65.5391V8.82849H70.6471V9.74541H68.571V16.2922Z" fill="white"/>
<path d="M68.5709 16.2922V16.1678H67.739V9.62101H65.6628V8.95288H70.5231V9.62101H68.447V16.2922H68.5709V16.1678V16.2922H68.6948V9.8698H70.7709V8.82848V8.70409H65.415V9.7454V9.8698H67.4912V16.4166H68.5709H68.6948V16.2922H68.5709" fill="white"/>
<path d="M74.3433 16.2922V8.82849H75.2981V16.2922H74.3433Z" fill="white"/>
<path d="M74.3431 16.2922H74.467V8.95288H75.174V16.1678H74.3431V16.2922H74.467H74.3431V16.4166H75.2979H75.4218V8.70409H74.3431H74.2192V16.4166H74.3431V16.2922Z" fill="white"/>
<path d="M79.5347 16.2922H78.5789V9.74541H76.5029V8.82849H81.6109V9.74541H79.5347V16.2922Z" fill="white"/>
<path d="M79.5346 16.2922V16.1678H78.7027V9.62101H76.6267V8.95288H81.4869V9.62101H79.4107V16.2922H79.5346V16.1678V16.2922H79.6585V9.8698H81.7347V8.82848V8.70409H76.3789V9.7454V9.8698H78.4549V16.4166H79.5346H79.6585V16.2922H79.5346" fill="white"/>
<path d="M86.5356 14.7029C87.0858 15.2622 87.759 15.5416 88.5551 15.5416C89.3512 15.5416 90.0248 15.2622 90.5741 14.7029C91.1248 14.1436 91.4007 13.4287 91.4007 12.5604C91.4007 11.6921 91.1248 10.9772 90.5741 10.418C90.0248 9.85868 89.3512 9.57928 88.5551 9.57928C87.759 9.57928 87.0858 9.85868 86.5356 10.418C85.9863 10.9772 85.7105 11.6921 85.7105 12.5604C85.7105 13.4287 85.9863 14.1436 86.5356 14.7029ZM91.2807 15.3277C90.5498 16.0823 89.641 16.459 88.5551 16.459C87.4681 16.459 86.5597 16.0823 85.8305 15.3277C85.0992 14.574 84.7354 13.6514 84.7354 12.5604C84.7354 11.4695 85.0992 10.5467 85.8305 9.79312C86.5597 9.03841 87.4681 8.66137 88.5551 8.66137C89.6353 8.66137 90.5417 9.0404 91.2758 9.79797C92.009 10.5555 92.3758 11.4763 92.3758 12.5604C92.3758 13.6514 92.0099 14.574 91.2807 15.3277Z" fill="white"/>
<path d="M86.5355 14.7029L86.4474 14.7903C87.018 15.372 87.7299 15.6674 88.555 15.666C89.3796 15.6674 90.0924 15.372 90.6621 14.7903C91.2364 14.2082 91.5253 13.4549 91.5245 12.5604C91.5253 11.6659 91.2364 10.9127 90.6621 10.3305C90.0924 9.74882 89.3796 9.45338 88.555 9.45488C87.7299 9.45338 87.018 9.74882 86.4474 10.3305C85.8744 10.9127 85.585 11.6659 85.5865 12.5604C85.585 13.4549 85.8744 14.2082 86.4474 14.7903L86.5355 14.7029L86.6235 14.6154C86.098 14.0784 85.8352 13.4029 85.8342 12.5604C85.8352 11.7179 86.098 11.0424 86.6235 10.5054C87.1539 9.96851 87.7874 9.70516 88.555 9.70367C89.322 9.70516 89.9569 9.96851 90.4859 10.5054C91.0124 11.0424 91.2752 11.7179 91.2762 12.5604C91.2752 13.4029 91.0124 14.0784 90.4859 14.6154C89.9569 15.1523 89.322 15.4157 88.555 15.4172C87.7874 15.4157 87.1539 15.1523 86.6235 14.6154L86.5355 14.7029ZM91.2805 15.3277L91.192 15.2413C90.4816 15.9721 89.6129 16.3331 88.555 16.3346C87.4966 16.3331 86.6279 15.9721 85.9189 15.2413L85.9155 15.2374L85.9189 15.2413C85.21 14.508 84.8601 13.6236 84.8591 12.5604C84.8601 11.4972 85.21 10.6129 85.9189 9.87956C86.6279 9.14874 87.4966 8.78725 88.555 8.78575C89.606 8.78725 90.4728 9.15023 91.1871 9.88491C91.8985 10.6216 92.2503 11.5045 92.2518 12.5604C92.2503 13.6236 91.8995 14.508 91.192 15.2413L91.2805 15.3277L91.3696 15.4142C92.1206 14.6397 92.5005 13.679 92.4996 12.5604C92.5005 11.4482 92.1191 10.4895 91.3647 9.7115C90.6098 8.93055 89.6642 8.53559 88.555 8.53696C87.44 8.53559 86.4915 8.92868 85.7413 9.70665V9.70615C84.9888 10.4811 84.6103 11.4418 84.6113 12.5604C84.6103 13.679 84.9888 14.6397 85.7413 15.4147L85.7447 15.4182L85.7413 15.4142C86.4915 16.1921 87.44 16.5844 88.555 16.5834C89.6695 16.5844 90.618 16.1921 91.3696 15.4142L91.2805 15.3277" fill="white"/>
<path d="M93.7163 16.2922V8.82849H94.8788L98.4914 14.6348H98.5325L98.4914 13.1964V8.82849H99.4472V16.2922H98.4502L94.6706 10.2046H94.6295L94.6706 11.6434V16.2922H93.7163Z" fill="white"/>
<path d="M93.7162 16.2922H93.8401V8.95288H94.8099L98.4225 14.7592H98.5324H98.6596L98.6151 13.1945V8.95288H99.3231V16.1678H98.5189L94.7392 10.0802H94.6294H94.5021L94.5466 11.6454V16.1678H93.7162V16.2922H93.8401H93.7162V16.4166H94.6705H94.7944V11.6414L94.7532 10.2012L94.6294 10.2046V10.3289H94.6705V10.2046L94.5654 10.2707L98.3813 16.4166H99.447H99.5709V8.70409H98.4912H98.3673V13.1979L98.4085 14.6381L98.5324 14.6348V14.5104H98.4912V14.6348L98.5963 14.5687L94.9473 8.70409H93.7162H93.5923V16.4166H93.7162V16.2922Z" fill="white"/>
<path d="M132.568 37.4395H134.88V21.8886H132.568V37.4395ZM153.391 27.4903L150.741 34.2325H150.661L147.911 27.4903H145.421L149.545 36.9137L147.194 42.1554H149.606L155.961 27.4903H153.391ZM140.281 35.6732C139.522 35.6732 138.467 35.2932 138.467 34.3525C138.467 33.1522 139.783 32.6921 140.917 32.6921C141.934 32.6921 142.411 32.9121 143.03 33.2125C142.85 34.6528 141.615 35.6732 140.281 35.6732V35.6732ZM140.559 27.1501C138.886 27.1501 137.152 27.8906 136.435 29.5312L138.487 30.3912C138.925 29.5312 139.742 29.2508 140.599 29.2508C141.794 29.2508 143.01 29.9714 143.03 31.2518V31.4117C142.611 31.1716 141.715 30.8116 140.619 30.8116C138.407 30.8116 136.155 32.0317 136.155 34.3126C136.155 36.3933 137.969 37.734 140.001 37.734C141.555 37.734 142.411 37.0337 142.95 36.2136H143.03V37.4138H145.261V31.4515C145.261 28.691 143.209 27.1501 140.559 27.1501V27.1501ZM126.272 29.3834H122.984V24.0529H126.272C128.001 24.0529 128.982 25.4897 128.982 26.7181C128.982 27.9232 128.001 29.3834 126.272 29.3834ZM126.213 21.8886H120.674V37.4395H122.984V31.5478H126.213C128.775 31.5478 131.294 29.6852 131.294 26.7181C131.294 23.7511 128.775 21.8886 126.213 21.8886ZM96.0075 35.6761C94.4104 35.6761 93.0733 34.3335 93.0733 32.4894C93.0733 30.626 94.4104 29.263 96.0075 29.263C97.5842 29.263 98.8216 30.626 98.8216 32.4894C98.8216 34.3335 97.5842 35.6761 96.0075 35.6761V35.6761ZM98.6619 28.3611H98.582C98.0633 27.74 97.0649 27.1789 95.8077 27.1789C93.173 27.1789 90.7582 29.5034 90.7582 32.4894C90.7582 35.4555 93.173 37.7602 95.8077 37.7602C97.0649 37.7602 98.0633 37.1989 98.582 36.558H98.6619V37.3195C98.6619 39.3439 97.5842 40.426 95.8478 40.426C94.4307 40.426 93.5525 39.4036 93.1928 38.542L91.1773 39.3837C91.7561 40.7865 93.2931 42.5101 95.8478 42.5101C98.5622 42.5101 100.858 40.9065 100.858 36.9988V27.4995H98.6619V28.3611ZM102.454 37.4395H104.769V21.8881H102.454V37.4395ZM108.182 32.3092C108.122 30.2649 109.759 29.223 110.937 29.223C111.855 29.223 112.633 29.6837 112.892 30.3456L108.182 32.3092ZM115.368 30.5457C114.929 29.363 113.591 27.1789 110.857 27.1789C108.142 27.1789 105.887 29.3232 105.887 32.4695C105.887 35.4356 108.122 37.7602 111.116 37.7602C113.532 37.7602 114.929 36.2772 115.508 35.4156L113.711 34.2129C113.113 35.0949 112.294 35.6761 111.116 35.6761C109.939 35.6761 109.101 35.1348 108.561 34.073L115.607 31.1468L115.368 30.5457ZM59.2357 28.8022V31.0467H64.5846C64.4249 32.3092 64.0058 33.231 63.367 33.8723C62.5889 34.6542 61.3713 35.5157 59.2357 35.5157C55.9423 35.5157 53.3678 32.8504 53.3678 29.5437C53.3678 26.2371 55.9423 23.5714 59.2357 23.5714C61.0121 23.5714 62.3091 24.273 63.2673 25.1748L64.844 23.5918C63.5069 22.3089 61.7303 21.3269 59.2357 21.3269C54.7247 21.3269 50.9326 25.0145 50.9326 29.5437C50.9326 34.073 54.7247 37.7602 59.2357 37.7602C61.6708 37.7602 63.5069 36.959 64.9437 35.4555C66.4208 33.9725 66.88 31.8884 66.88 30.2052C66.88 29.6837 66.8402 29.2031 66.76 28.8022H59.2357ZM72.9612 35.6761C71.3642 35.6761 69.9869 34.3534 69.9869 32.4695C69.9869 30.5657 71.3642 29.263 72.9612 29.263C74.5577 29.263 75.935 30.5657 75.935 32.4695C75.935 34.3534 74.5577 35.6761 72.9612 35.6761V35.6761ZM72.9612 27.1789C70.0469 27.1789 67.6717 29.4033 67.6717 32.4695C67.6717 35.5157 70.0469 37.7602 72.9612 37.7602C75.875 37.7602 78.2502 35.5157 78.2502 32.4695C78.2502 29.4033 75.875 27.1789 72.9612 27.1789ZM84.4993 35.6761C82.9029 35.6761 81.5255 34.3534 81.5255 32.4695C81.5255 30.5657 82.9029 29.263 84.4993 29.263C86.0959 29.263 87.4731 30.5657 87.4731 32.4695C87.4731 34.3534 86.0959 35.6761 84.4993 35.6761ZM84.4993 27.1789C81.585 27.1789 79.2103 29.4033 79.2103 32.4695C79.2103 35.5157 81.585 37.7602 84.4993 37.7602C87.4132 37.7602 89.7884 35.5157 89.7884 32.4695C89.7884 29.4033 87.4132 27.1789 84.4993 27.1789Z" fill="white"/>
<path d="M13.1068 40.412L13.0148 40.3235C12.6542 39.9405 12.4414 39.3458 12.4414 38.5757V38.7569V11.2455C12.4414 11.2431 12.4414 11.2412 12.4414 11.2392C12.4414 11.2416 12.4414 11.2435 12.4414 11.246V11.4278C12.4414 10.5938 12.6896 9.96563 13.1053 9.58896L28.455 25.001L13.1068 40.412ZM12.4414 11.2377C12.4414 11.1692 12.4433 11.1026 12.4467 11.0371C12.4433 11.1021 12.4414 11.1692 12.4414 11.2377ZM12.4467 11.0341C12.4467 11.0332 12.4467 11.0322 12.4471 11.0312C12.4467 11.0322 12.4467 11.0332 12.4467 11.0341ZM12.4471 11.0254C12.4471 11.0249 12.4471 11.0244 12.4471 11.0239C12.4471 11.0244 12.4471 11.0249 12.4471 11.0254Z" fill="url(#paint0_linear_1126_734)"/>
<path d="M33.5708 30.3223L33.6875 30.2557L39.7493 26.7974C40.3273 26.4675 40.7124 26.0676 40.9046 25.6444C40.7129 26.0676 40.3276 26.468 39.7493 26.7979L33.6875 30.2562L33.5708 30.3223V30.3223ZM33.5723 30.14L28.4551 25.001L33.5718 19.8628L39.7493 23.3867C40.5338 23.8343 40.9742 24.4111 41.0478 25.0005C41.0478 25.001 41.0478 25.002 41.0478 25.0029C40.9742 25.5909 40.5338 26.1682 39.7493 26.6156L33.5723 30.14" fill="url(#paint1_linear_1126_734)"/>
<path d="M14.2009 40.9989C13.7721 40.9989 13.398 40.859 13.1062 40.5946L13.1067 40.5941C13.3985 40.8585 13.7731 40.9989 14.2019 40.9989C14.2391 40.9989 14.2768 40.9979 14.3151 40.996C14.2763 40.9979 14.2381 40.9989 14.2009 40.9989V40.9989ZM14.2014 40.8167C13.7726 40.8172 13.3985 40.6767 13.1067 40.4124V40.412L28.4548 25.001L33.5721 30.14L15.5893 40.3993C15.0918 40.6826 14.6204 40.8167 14.2014 40.8167V40.8167ZM13.1024 40.5913C13.0752 40.5665 13.0486 40.5403 13.0225 40.513L13.1024 40.5913Z" fill="url(#paint2_linear_1126_734)"/>
<path d="M28.4551 25.001L13.1055 9.58897C13.3972 9.32513 13.7709 9.18518 14.1992 9.18518C14.6193 9.18518 15.091 9.31978 15.5896 9.60353L33.5719 19.8628L28.4551 25.001V25.001ZM33.6876 19.7467L15.5896 9.42191C15.091 9.13803 14.6193 9.00344 14.1992 9.00344C14.1972 9.00344 14.1958 9.00344 14.1938 9.00344C14.1963 9.00344 14.1982 9.00344 14.2011 9.00344C14.6203 9.00344 15.0915 9.13754 15.5896 9.42141L33.6876 19.7467V19.7467Z" fill="url(#paint3_linear_1126_734)"/>
<path d="M14.3156 40.9961C14.7051 40.9737 15.1364 40.8391 15.5898 40.5811L33.5711 30.3223L15.5898 40.5811C15.1367 40.8396 14.7051 40.9737 14.3156 40.9961V40.9961ZM13.1067 40.5947L13.1029 40.5913C13.1042 40.5923 13.1057 40.5937 13.1067 40.5947ZM13.0229 40.5131L13.0151 40.5054V40.5049C13.0181 40.5077 13.0205 40.5106 13.0229 40.5131Z" fill="black"/>
<path d="M33.5708 30.3223L33.6875 30.2557L33.5708 30.3223Z" fill="url(#paint4_linear_1126_734)"/>
<path d="M14.2024 40.9989C13.7736 40.9989 13.3989 40.8585 13.1072 40.5941L13.1067 40.5946C13.1057 40.5936 13.1042 40.5923 13.1029 40.5913L13.0229 40.513C13.0205 40.5105 13.0181 40.5077 13.0151 40.5048L13.1072 40.4124C13.3989 40.6767 13.7731 40.8172 14.2019 40.8167C14.6209 40.8167 15.0923 40.6826 15.5898 40.3993L33.5726 30.14L33.6878 30.2557L33.5711 30.3223L15.5898 40.5811C15.1364 40.8391 14.7051 40.9736 14.3156 40.996C14.2773 40.9979 14.2395 40.9989 14.2024 40.9989" fill="url(#paint5_linear_1126_734)"/>
<path d="M13.0148 40.5052C12.6542 40.1222 12.4414 39.5275 12.4414 38.7574V38.7569C12.4414 39.5275 12.6542 40.1217 13.0148 40.5048V40.5052" fill="black"/>
<path d="M13.0148 40.5048C12.6542 40.1217 12.4414 39.5275 12.4414 38.7569V38.5756C12.4414 39.3458 12.6542 39.9405 13.0148 40.3235L13.1068 40.412L13.0148 40.5048" fill="url(#paint6_linear_1126_734)"/>
<path d="M13.0151 40.5048L13.1072 40.412V40.4123L13.0151 40.5048" fill="url(#paint7_linear_1126_734)"/>
<path d="M40.9048 25.6443C41.0001 25.4343 41.048 25.2186 41.048 25.0028C41.048 25.0024 41.048 25.0019 41.048 25.0019C41.048 25.2181 41.0001 25.4338 40.9048 25.6443Z" fill="black"/>
<path d="M33.6875 30.2557L33.5723 30.1401L39.7493 26.6157C40.5337 26.1682 40.9742 25.5909 41.0477 25.0029C41.0477 25.2187 40.9998 25.4344 40.9045 25.6444C40.7124 26.0676 40.3272 26.4675 39.7493 26.7974L33.6875 30.2557Z" fill="url(#paint8_linear_1126_734)"/>
<path d="M41.0478 25.001V25.0005C41.0473 24.3498 40.6142 23.6992 39.7493 23.2055L33.6875 19.7471H33.687L33.6875 19.7468L39.7493 23.205C40.6151 23.6987 41.0488 24.3503 41.0478 25.001Z" fill="#404040"/>
<path d="M41.0477 25.0005C40.9742 24.4111 40.5337 23.8343 39.7493 23.3867L33.5718 19.8628L33.687 19.7471H33.6875L39.7493 23.2055C40.6141 23.6992 41.0473 24.3498 41.0477 25.0005Z" fill="url(#paint9_linear_1126_734)"/>
<path d="M12.4414 11.2391C12.4414 11.2386 12.4414 11.2381 12.4414 11.2376C12.4414 11.2381 12.4414 11.2386 12.4414 11.2391ZM12.4467 11.037C12.4467 11.036 12.4467 11.035 12.4467 11.034C12.4467 11.035 12.4467 11.036 12.4467 11.037ZM12.4471 11.0311C12.4471 11.0292 12.4471 11.0273 12.4471 11.0253C12.4471 11.0273 12.4471 11.0292 12.4471 11.0311ZM12.4471 11.0238C12.5188 9.74589 13.2109 9.00772 14.1899 9.00337C13.7654 9.00586 13.3957 9.1458 13.1063 9.40766V9.40716L13.1028 9.41064C13.0724 9.43826 13.0434 9.46749 13.0148 9.49759C12.6896 9.84304 12.4844 10.3605 12.4471 11.0238Z" fill="#404040"/>
<path d="M12.4414 11.4279V11.2461C12.4414 11.2436 12.4414 11.2416 12.4414 11.2393C12.4414 11.2388 12.4414 11.2383 12.4414 11.2378C12.4414 11.1692 12.4433 11.1022 12.4467 11.0371C12.4467 11.0361 12.4467 11.0351 12.4467 11.0341C12.4467 11.0333 12.4467 11.0323 12.4471 11.0313C12.4471 11.0293 12.4471 11.0274 12.4471 11.0254C12.4471 11.0249 12.4471 11.0244 12.4471 11.0239C12.4844 10.3607 12.6896 9.84318 13.0148 9.49773L13.1053 9.58904C12.6896 9.96571 12.4414 10.5939 12.4414 11.4279V11.4279ZM13.1029 9.41078L13.1063 9.4073C13.1053 9.40879 13.1038 9.40978 13.1029 9.41078Z" fill="url(#paint10_linear_1126_734)"/>
<path d="M33.5721 19.8628L15.5898 9.60351C15.0913 9.31976 14.6195 9.18516 14.1994 9.18516C13.7711 9.18516 13.3975 9.32511 13.1057 9.58895L13.0151 9.49764C13.0438 9.46754 13.0727 9.43831 13.1032 9.41069C13.1042 9.40969 13.1057 9.4087 13.1067 9.40771C13.3961 9.14585 13.7658 9.00591 14.1902 9.00342C14.1912 9.00342 14.1926 9.00342 14.1941 9.00342C14.196 9.00342 14.1974 9.00342 14.1994 9.00342C14.6195 9.00342 15.0913 9.13801 15.5898 9.42188L33.6878 19.7467L33.6873 19.7471L33.5721 19.8628Z" fill="url(#paint11_linear_1126_734)"/>
<defs>
<linearGradient id="paint0_linear_1126_734" x1="27.0939" y1="10.9553" x2="6.21737" y2="31.7469" gradientUnits="userSpaceOnUse">
<stop stop-color="#00A0FF"/>
<stop offset="0.00657445" stop-color="#00A1FF"/>
<stop offset="0.2601" stop-color="#00BEFF"/>
<stop offset="0.5122" stop-color="#00D2FF"/>
<stop offset="0.7604" stop-color="#00DFFF"/>
<stop offset="1" stop-color="#00E3FF"/>
</linearGradient>
<linearGradient id="paint1_linear_1126_734" x1="42.0036" y1="25.0017" x2="12.0261" y2="25.0017" gradientUnits="userSpaceOnUse">
<stop stop-color="#FFE000"/>
<stop offset="0.4087" stop-color="#FFBD00"/>
<stop offset="0.7754" stop-color="#FFA500"/>
<stop offset="1" stop-color="#FF9C00"/>
</linearGradient>
<linearGradient id="paint2_linear_1126_734" x1="30.8442" y1="27.8562" x2="2.53404" y2="56.0511" gradientUnits="userSpaceOnUse">
<stop stop-color="#FF3A44"/>
<stop offset="1" stop-color="#C31162"/>
</linearGradient>
<linearGradient id="paint3_linear_1126_734" x1="9.12701" y1="0.340025" x2="21.7686" y2="12.9302" gradientUnits="userSpaceOnUse">
<stop stop-color="#32A071"/>
<stop offset="0.0685" stop-color="#2DA771"/>
<stop offset="0.4762" stop-color="#15CF74"/>
<stop offset="0.8009" stop-color="#06E775"/>
<stop offset="1" stop-color="#00F076"/>
</linearGradient>
<linearGradient id="paint4_linear_1126_734" x1="42.0032" y1="25.0015" x2="12.027" y2="25.0015" gradientUnits="userSpaceOnUse">
<stop stop-color="#CCB300"/>
<stop offset="0.4087" stop-color="#CC9700"/>
<stop offset="0.7754" stop-color="#CC8400"/>
<stop offset="1" stop-color="#CC7D00"/>
</linearGradient>
<linearGradient id="paint5_linear_1126_734" x1="30.8447" y1="27.8562" x2="2.53452" y2="56.0511" gradientUnits="userSpaceOnUse">
<stop stop-color="#CC2E36"/>
<stop offset="1" stop-color="#9C0E4E"/>
</linearGradient>
<linearGradient id="paint6_linear_1126_734" x1="27.0939" y1="10.9553" x2="6.21734" y2="31.7468" gradientUnits="userSpaceOnUse">
<stop stop-color="#008DE0"/>
<stop offset="0.00657445" stop-color="#008DE0"/>
<stop offset="0.2601" stop-color="#00A7E0"/>
<stop offset="0.5122" stop-color="#00B8E0"/>
<stop offset="0.7604" stop-color="#00C4E0"/>
<stop offset="1" stop-color="#00C7E0"/>
</linearGradient>
<linearGradient id="paint7_linear_1126_734" x1="30.8447" y1="27.8558" x2="2.53379" y2="56.0508" gradientUnits="userSpaceOnUse">
<stop stop-color="#E0333C"/>
<stop offset="1" stop-color="#AB0F56"/>
</linearGradient>
<linearGradient id="paint8_linear_1126_734" x1="42.0035" y1="25.0018" x2="12.0261" y2="25.0018" gradientUnits="userSpaceOnUse">
<stop stop-color="#E0C500"/>
<stop offset="0.4087" stop-color="#E0A600"/>
<stop offset="0.7754" stop-color="#E09100"/>
<stop offset="1" stop-color="#E08900"/>
</linearGradient>
<linearGradient id="paint9_linear_1126_734" x1="42.0036" y1="25.0017" x2="12.0261" y2="25.0017" gradientUnits="userSpaceOnUse">
<stop stop-color="#FFE840"/>
<stop offset="0.4087" stop-color="#FFCE40"/>
<stop offset="0.7754" stop-color="#FFBC40"/>
<stop offset="1" stop-color="#FFB540"/>
</linearGradient>
<linearGradient id="paint10_linear_1126_734" x1="27.0939" y1="10.9554" x2="6.21736" y2="31.7469" gradientUnits="userSpaceOnUse">
<stop stop-color="#40B8FF"/>
<stop offset="0.00657445" stop-color="#40B9FF"/>
<stop offset="0.2601" stop-color="#40CEFF"/>
<stop offset="0.5122" stop-color="#40DDFF"/>
<stop offset="0.7604" stop-color="#40E7FF"/>
<stop offset="1" stop-color="#40EAFF"/>
</linearGradient>
<linearGradient id="paint11_linear_1126_734" x1="9.12724" y1="0.340004" x2="21.7689" y2="12.9301" gradientUnits="userSpaceOnUse">
<stop stop-color="#65B895"/>
<stop offset="0.0685" stop-color="#62BD95"/>
<stop offset="0.4762" stop-color="#50DB97"/>
<stop offset="0.8009" stop-color="#44ED98"/>
<stop offset="1" stop-color="#40F498"/>
</linearGradient>
</defs>
</svg>
