<svg width="74" height="32" viewBox="0 0 74 32" fill="none" xmlns="http://www.w3.org/2000/svg">
<g clip-path="url(#clip0_1126_2951)">
<path d="M12.0736 24.0189C5.3703 24.0521 0.247518 18.5546 0.108469 12.3693C-0.0484778 5.35101 5.51073 -0.0373461 12.1369 -5.17225e-05C18.7025 0.0372427 24.0648 5.34272 24.0456 12.1165C24.0277 18.5588 18.7066 24.0659 12.0736 24.0189ZM19.5216 8.92575C20.0806 8.93404 20.3807 8.49617 20.137 8.01963C19.8369 7.43259 19.512 6.8566 19.088 6.34414C18.3776 5.48499 17.5405 4.7833 16.5686 4.23632C15.7315 3.76392 14.8573 3.40617 13.9046 3.24456C13.091 3.10644 12.2828 2.99317 11.4499 3.06085C10.7423 3.11887 10.0374 3.20451 9.36556 3.4186C8.24215 3.77635 7.21098 4.3261 6.30372 5.09685C5.35516 5.90352 4.57318 6.83588 4.05003 7.97681C3.83113 8.45335 4.11886 8.9216 4.63789 8.93265C4.9504 8.93818 5.2051 8.77519 5.47769 8.65916C5.99258 8.44092 6.49784 8.19229 7.02788 8.01963C7.87594 7.74338 8.74052 7.51961 9.6175 7.34557C10.2412 7.22125 10.8634 7.11213 11.4967 7.137C12.1011 7.16048 12.7055 7.12042 13.3112 7.17015C13.9872 7.22678 14.6425 7.37596 15.3034 7.50442C15.8596 7.61215 16.3979 7.78619 16.9348 7.96024C17.4813 8.13842 18.0128 8.35252 18.5428 8.5749C18.8705 8.71165 19.1499 8.99205 19.523 8.92437L19.5216 8.92575ZM13.9487 20.0616C13.9459 20.5837 14.1318 20.7674 14.5434 20.697C14.6315 20.6818 14.7141 20.6376 14.7995 20.6086C15.408 20.3986 15.9945 20.1389 16.5424 19.7978C16.8907 19.5809 17.2308 19.3558 17.5529 19.0975C18.1752 18.6002 18.7383 18.0463 19.2215 17.4137C19.6621 16.8377 20.0241 16.2147 20.3229 15.5531C20.4977 15.165 20.7001 14.7837 20.7084 14.3445C20.7139 14.0655 20.568 13.9039 20.2885 13.9191C19.9002 13.9384 19.5134 13.984 19.1279 14.0296C18.6516 14.0862 18.2027 14.2492 17.7677 14.4384C16.9403 14.7989 16.2148 15.3128 15.5994 15.973C15.0556 16.5559 14.6618 17.2355 14.392 17.9869C14.1442 18.6775 14.0024 19.3903 13.9473 20.063L13.9487 20.0616ZM4.29371 14.0503C4.14777 14.0503 4.00322 14.042 3.85729 14.0517C3.59709 14.0682 3.46217 14.2754 3.51999 14.5323C3.63013 15.0227 3.80635 15.4882 4.01561 15.944C4.31711 16.6043 4.71223 17.2065 5.15416 17.777C5.76405 18.5629 6.53501 19.1638 7.36931 19.6969C8.05629 20.1376 8.79835 20.4456 9.56793 20.6914C9.91487 20.8019 10.1792 20.5851 10.1751 20.2177C10.1737 20.1044 10.1448 19.9911 10.1324 19.8779C10.0938 19.5298 10.0897 19.1748 10.014 18.835C9.88045 18.2286 9.64916 17.6554 9.34353 17.1112C8.7419 16.0393 7.89934 15.2161 6.80898 14.6649C6.02287 14.2671 5.17619 14.0696 4.29233 14.0503H4.29371ZM12.1631 8.8332C12.024 8.82215 11.8671 8.86497 11.7087 8.88293C10.8868 8.97824 10.2797 9.42577 9.82676 10.0791C9.41099 10.6772 9.2389 11.3513 9.34215 12.0916C9.41787 12.6262 9.60786 13.1013 9.9369 13.5226C10.2714 13.9522 10.6858 14.3044 11.0548 14.7009C11.3604 15.0296 11.6812 15.3418 12.0006 15.6567C12.0791 15.7341 12.1644 15.839 12.2883 15.7092C12.4659 15.5227 12.6449 15.3376 12.8266 15.1539C13.2052 14.7685 13.5728 14.3707 13.9693 14.0033C14.8064 13.2284 15.2855 12.0281 14.8876 10.8374C14.5104 9.70893 13.4379 8.81939 12.1644 8.83182L12.1631 8.8332Z" fill="#F8C114"/>
<path d="M12.064 32C12.0089 31.9945 11.9745 31.9393 11.9401 31.8909C11.0438 30.6616 10.149 29.4322 9.25408 28.2015C8.53268 27.2084 7.81265 26.2139 7.09125 25.2207C6.84619 24.8823 6.60114 24.5453 6.35746 24.2069C6.32442 24.1599 6.23493 24.1226 6.28311 24.0577C6.33818 23.9831 6.42354 24.0232 6.491 24.0577C6.787 24.211 7.07473 24.3823 7.37761 24.5204C7.90076 24.758 8.42117 24.9914 8.98287 25.1434C9.38074 25.2511 9.77999 25.3478 10.1806 25.4459C10.3279 25.4818 10.4807 25.526 10.6308 25.5232C11.2132 25.508 11.7845 25.7138 12.3641 25.6282C13.1598 25.5108 13.9625 25.4735 14.75 25.2539C15.7233 24.9818 16.6361 24.5964 17.5062 24.0922C17.5254 24.0812 17.5475 24.0715 17.5695 24.066C17.6727 24.0397 17.809 23.9679 17.8751 24.0439C17.9605 24.1433 17.8049 24.2041 17.7526 24.2759C17.0463 25.2484 16.3304 26.2153 15.6228 27.1877C14.9234 28.149 14.2323 29.1145 13.5357 30.0773C13.1117 30.6643 12.6849 31.25 12.2567 31.8343C12.2099 31.8992 12.1824 31.9917 12.0654 32.0014L12.064 32Z" fill="#F8C114"/>
<path d="M10.6846 11.6027C10.6116 10.7684 11.4005 10.162 12.0255 10.1289C13.1228 10.0709 13.6597 10.8541 13.6583 11.6055C13.6583 12.4771 13.0071 13.1083 12.1591 13.1221C11.3468 13.1345 10.6144 12.4135 10.6832 11.6027H10.6846Z" fill="#F8C114"/>
<path d="M29.0018 7.73517L32.2316 7.15918V10.8803H36.1112V13.857H32.2316V18.2992C32.2316 19.052 32.3514 19.6514 32.5896 20.1003C32.8277 20.5493 33.3082 20.773 34.031 20.773C34.3779 20.773 34.7359 20.7371 35.1035 20.6653C35.4711 20.5935 35.8084 20.494 36.1112 20.3656L36.5669 23.1502C36.1773 23.327 35.7436 23.4789 35.2659 23.606C34.7882 23.7331 34.2045 23.798 33.5106 23.798C32.6295 23.798 31.8985 23.6654 31.3216 23.4016C30.7434 23.1378 30.2808 22.769 29.9339 22.2966C29.5869 21.8242 29.3446 21.2523 29.2083 20.5796C29.0707 19.907 29.0018 19.1638 29.0018 18.3461V7.73517Z" fill="white"/>
<path d="M42.3973 10.5447C43.3514 10.5447 44.1458 10.6649 44.7818 10.9052C45.4179 11.1456 45.9272 11.4895 46.31 11.937C46.6927 12.386 46.9639 12.9302 47.1222 13.5697C47.2806 14.2106 47.3604 14.922 47.3604 15.7065V23.1489C46.8978 23.2607 46.2549 23.3933 45.4316 23.5453C44.6083 23.6972 43.6116 23.7732 42.44 23.7732C41.7035 23.7732 41.0344 23.7014 40.4355 23.5577C39.8366 23.4141 39.319 23.1779 38.8853 22.8491C38.4516 22.5218 38.1198 22.0936 37.8886 21.5645C37.6573 21.0369 37.5416 20.3877 37.5416 19.6197C37.5416 18.8517 37.6752 18.2591 37.9422 17.7467C38.2093 17.2342 38.5673 16.8268 39.0147 16.5215C39.4622 16.2176 39.9757 15.998 40.5539 15.8612C41.1321 15.7259 41.731 15.6568 42.3533 15.6568C42.7718 15.6568 43.1449 15.6775 43.4698 15.7162C43.7947 15.7563 44.059 15.8088 44.2614 15.8723V15.5366C44.2614 14.9289 44.0948 14.4399 43.763 14.0725C43.4299 13.7051 42.853 13.52 42.0284 13.52C41.4791 13.52 40.9366 13.5642 40.4025 13.6526C39.8683 13.741 39.4057 13.8653 39.0147 14.0241L38.6031 11.1428C38.7903 11.0793 39.0257 11.0102 39.308 10.9384C39.5902 10.8666 39.8972 10.803 40.229 10.7464C40.5608 10.6911 40.9118 10.6428 41.2794 10.6027C41.6484 10.5627 42.0201 10.5433 42.3959 10.5433L42.3973 10.5447ZM42.6575 21.012C42.9755 21.012 43.2784 21.0037 43.5675 20.9885C43.8567 20.9733 44.0879 20.9485 44.2614 20.9167V18.2039C44.1306 18.1721 43.9365 18.1403 43.6763 18.1072C43.4161 18.0754 43.1779 18.0589 42.9604 18.0589C42.6562 18.0589 42.3712 18.0796 42.1041 18.1182C41.837 18.1583 41.6016 18.2343 41.3992 18.3462C41.1968 18.458 41.0385 18.61 40.9229 18.802C40.8072 18.994 40.7494 19.2343 40.7494 19.5216C40.7494 20.0824 40.9187 20.4706 41.2588 20.686C41.5975 20.9015 42.0642 21.0106 42.6562 21.0106L42.6575 21.012Z" fill="white"/>
<path d="M54.8402 23.7483C53.8999 23.7317 53.1385 23.6198 52.5534 23.4126C51.9683 23.2054 51.5058 22.9126 51.1657 22.5369C50.8257 22.1612 50.5944 21.7054 50.4718 21.168C50.3493 20.6321 50.2874 20.0271 50.2874 19.3558V5.45465L53.5171 4.87866V18.6362C53.5171 18.9566 53.5392 19.2453 53.5819 19.5008C53.6259 19.7578 53.7085 19.9732 53.831 20.1487C53.9536 20.3255 54.1312 20.4691 54.3625 20.581C54.5937 20.6929 54.9049 20.7647 55.2945 20.7965L54.8388 23.7496L54.8402 23.7483Z" fill="white"/>
<path d="M61.6894 23.7483C60.7491 23.7317 59.9878 23.6198 59.4027 23.4126C58.8176 23.2054 58.355 22.9126 58.0149 22.5369C57.6749 22.1612 57.4436 21.7054 57.3211 21.168C57.1985 20.6321 57.1366 20.0271 57.1366 19.3558V5.45465L60.3664 4.87866V18.6362C60.3664 18.9566 60.3884 19.2453 60.4311 19.5008C60.4751 19.7578 60.5578 19.9732 60.6803 20.1487C60.8028 20.3255 60.9804 20.4691 61.2117 20.581C61.443 20.6929 61.7541 20.7647 62.1437 20.7965L61.688 23.7496L61.6894 23.7483Z" fill="white"/>
<path d="M73.894 10.8804C73.2415 13.3142 72.5614 15.5947 71.851 17.7232C71.1406 19.8518 70.3655 21.9168 69.5257 23.9168C69.2214 24.6365 68.9172 25.2498 68.6143 25.7539C68.31 26.2581 67.9769 26.6739 67.6162 27.0026C67.2541 27.33 66.8452 27.5703 66.3895 27.7223C65.9338 27.8742 65.4024 27.9502 64.7939 27.9502C64.2873 27.9502 63.8206 27.8977 63.3938 27.7941C62.967 27.6905 62.6159 27.5745 62.3406 27.446L62.9037 24.5895C63.2368 24.718 63.5328 24.805 63.793 24.8534C64.0532 24.9017 64.3286 24.9252 64.6177 24.9252C65.1959 24.9252 65.6406 24.7525 65.9517 24.4086C66.2629 24.0646 66.5258 23.5881 66.7433 22.9803C66.0054 21.3808 65.2689 19.5838 64.5309 17.5906C63.793 15.5974 63.0992 13.3611 62.4493 10.8804H65.8746C66.0192 11.5047 66.1899 12.1815 66.3868 12.9095C66.5823 13.6374 66.7901 14.3736 67.0077 15.1181C67.2252 15.8626 67.4468 16.5864 67.6712 17.2909C67.8957 17.9953 68.1104 18.6349 68.3142 19.2122C68.5028 18.6362 68.6983 17.9967 68.902 17.2909C69.1058 16.5864 69.304 15.8626 69.5009 15.1181C69.6964 14.3736 69.885 13.6374 70.0668 12.9095C70.2485 12.1815 70.4109 11.5047 70.5569 10.8804H73.8968H73.894Z" fill="white"/>
</g>
<defs>
<clipPath id="clip0_1126_2951">
<rect width="73.7882" height="32" fill="white" transform="translate(0.105835)"/>
</clipPath>
</defs>
</svg>
